<?xml version="1.0" encoding="utf-8"?>
<svg viewBox="2.646 3.123 176.3 48.998" width="176.3px" height="48.998px" xmlns="http://www.w3.org/2000/svg">
  <defs>
    <clipPath id="clipPath26">
      <path d="M 0,112.5 H 392.5 V 0 H 0 Z"/>
    </clipPath>
    <linearGradient id="linearGradient78" x2="1" gradientTransform="matrix(-62.719 94.579 94.579 62.719 171.39 54.356)" gradientUnits="userSpaceOnUse">
      <stop stop-color="#fff" offset="0"/>
      <stop stop-color="#fff" offset="0.0057"/>
      <stop stop-color="#e20613" offset="0.3617"/>
      <stop stop-color="#e20613" offset="0.4761"/>
      <stop stop-color="#e20613" offset="1"/>
    </linearGradient>
  </defs>
  <g transform="matrix(1.3333, 0, 0, -1.3333, 0, 158.759842)">
    <g transform="matrix(.34021 0 0 .34021 1.3093 72.683)">
      <g clip-path="url(#clipPath26)">
        <g transform="translate(373.36 86.763)">
          <path d="m0 0h14.661v0.479c0 5.948-2.596 10.636-7.789 14.063-5.192 3.426-12.384 5.139-21.573 5.139-8.554 0-15.427-1.819-20.618-5.457-5.194-3.64-7.789-8.354-7.789-14.144 0-4.888 1.798-8.673 5.398-11.355 3.598-2.683 9.223-4.422 16.873-5.219l10.478-1.036c4.648-0.478 7.735-1.175 9.262-2.092 1.529-0.916 2.292-2.345 2.292-4.283 0-2.311-1.17-4.096-3.506-5.358-2.338-1.262-5.658-1.893-9.96-1.893-5.579 0-9.829 0.87-12.75 2.61-2.921 1.739-4.383 4.269-4.383 7.59v0.557h-15.099v-1.235c0-6.64 2.63-11.754 7.889-15.338 5.259-3.587 12.774-5.38 22.55-5.38 10.252 0 18.041 1.707 23.367 5.121 5.324 3.412 7.987 8.399 7.987 14.96 0 5.101-1.773 9.05-5.317 11.852-3.547 2.802-9.092 4.615-16.635 5.439l-10.956 1.155c-5.26 0.584-8.56 1.275-9.902 2.072-1.34 0.797-2.01 2.058-2.01 3.785 0 2.151 1.14 3.818 3.426 5 2.284 1.181 5.498 1.773 9.641 1.773 4.488 0 7.935-0.731 10.339-2.191 2.403-1.461 3.777-3.665 4.124-6.614" fill="#002c5d"/>
        </g>
        <g transform="translate(301.13 71.106)">
          <path d="m0 0 26.216 33.786h-18.687l-14.541-21.077-14.702 21.077h-18.765l25.738-33.786v-25.14h14.741z" fill="#002c5d"/>
        </g>
        <g transform="translate(214.31 88.794)">
          <path d="m0 0c0 2.151 1.143 3.818 3.427 5s5.497 1.773 9.642 1.773c4.488 0 7.934-0.731 10.338-2.191 2.404-1.462 3.779-3.665 4.123-6.614h14.662v0.479c0 5.949-2.596 10.636-7.79 14.064-5.191 3.425-12.384 5.138-21.573 5.138-8.553 0-15.426-1.819-20.617-5.457-5.193-3.64-7.79-8.355-7.79-14.144 0-4.888 1.8-8.673 5.399-11.355 3.6-2.682 9.224-4.422 16.872-5.219l10.479-1.036c4.646-0.478 7.736-1.175 9.264-2.091 1.527-0.917 2.291-2.345 2.291-4.284 0-2.31-1.17-4.096-3.506-5.357-2.339-1.263-5.658-1.894-9.961-1.894-5.578 0-9.827 0.871-12.75 2.61-2.922 1.739-4.382 4.269-4.382 7.59v0.557h-15.1v-1.235c0-6.641 2.629-11.752 7.888-15.338 5.26-3.585 12.776-5.378 22.551-5.378 10.252 0 18.041 1.706 23.367 5.119 5.324 3.412 7.987 8.4 7.987 14.96 0 5.1-1.772 9.05-5.319 11.853-3.545 2.802-9.091 4.614-16.633 5.438l-10.957 1.156c-5.258 0.584-8.558 1.274-9.899 2.071-1.343 0.797-2.013 2.059-2.013 3.785" fill="#002c5d"/>
        </g>
        <g transform="translate(59.737 45.965)">
          <path d="m0 0h52.312v12.391h-37.531v12.669h33.427v11.992h-33.427v9.961h37.531v11.912h-52.312z" fill="#002c5d"/>
        </g>
        <g transform="translate(1.9844 45.965)">
          <path d="m0 0h45.101v12.391h-30.321v46.534h-14.78z" fill="#002c5d"/>
        </g>
        <g transform="translate(157.25 110.16)">
          <path d="m0 0-37.339-64.195h15.753l21.586 37.473 20.786-37.473h16.552z" fill="#e30613"/>
        </g>
      </g>
    </g>
    <g transform="matrix(.34021 0 0 .34021 1.3093 72.683)">
      <path d="m125.31 55.251c0.465 0.091 0.931 0.182 1.395 0.274 5.694 1.134 11.248 2.393 16.632 3.762l13.911 24.152 9.514-17.152c4.583 1.594 8.962 3.26 13.104 4.985l-22.618 38.889z" fill="url(#linearGradient78)"/>
    </g>
  </g>
</svg>
